<svg width="48" height="47" viewBox="0 0 48 47" fill="none" xmlns="http://www.w3.org/2000/svg">
<path d="M2 2.5H10L15.36 29.28C15.5429 30.2008 16.0438 31.0279 16.7751 31.6166C17.5064 32.2053 18.4214 32.518 19.36 32.5H38.8C39.7386 32.518 40.6536 32.2053 41.3849 31.6166C42.1162 31.0279 42.6171 30.2008 42.8 29.28L46 12.5H12M20 42.5C20 43.6046 19.1046 44.5 18 44.5C16.8954 44.5 16 43.6046 16 42.5C16 41.3954 16.8954 40.5 18 40.5C19.1046 40.5 20 41.3954 20 42.5ZM42 42.5C42 43.6046 41.1046 44.5 40 44.5C38.8954 44.5 38 43.6046 38 42.5C38 41.3954 38.8954 40.5 40 40.5C41.1046 40.5 42 41.3954 42 42.5Z" stroke="white" stroke-width="4" stroke-linecap="round" stroke-linejoin="round"/>
</svg>
